# xmcd CD database file
#
# Track frame offsets:
#	150
#	25168
#	33814
#	49436
#	68092
#	91039
#	105094
#	124282
#	146163
#	170444
#	190034
#	208366
#	233112
#	250738
#	267787
#
# Disc length: 3830 seconds
#
# Revision: 0
# Processed by: cddbd v1.5.2PL0 Copyright (c) Steve Scherf et al.
# Submitted via: CDex 1.70beta2
#
DISCID=ca0ef40f
DTITLE=Nataliya Gudziy - Nataliya
DYEAR=2004
DGENRE=Country
TTITLE0=金色の花
TTITLE1=弾けよバンドゥーラ
TTITLE2=想い出
TTITLE3=秋桜
TTITLE4=キエフの鳥の歌
TTITLE5=見上げてごらん夜の星を
TTITLE6=遥かに遠い空
TTITLE7=涙そうそう
TTITLE8=川だけが知っている
TTITLE9=あなたと
TTITLE10=お母さんの歌
TTITLE11=なぜなのか教えて
TTITLE12=Time To Say Goodbye
TTITLE13=Ave Maria
TTITLE14=Amazing Grace
EXTD=YEAR: 2004
EXTT0=
EXTT1=
EXTT2=
EXTT3=
EXTT4=
EXTT5=
EXTT6=
EXTT7=
EXTT8=
EXTT9=
EXTT10=
EXTT11=
EXTT12=
EXTT13=
EXTT14=
PLAYORDER=
